<?xml version="1.0" standalone="no"?>
<!DOCTYPE svg PUBLIC "-//W3C//DTD SVG 20010904//EN"
 "http://www.w3.org/TR/2001/REC-SVG-20010904/DTD/svg10.dtd">
<svg version="1.0" xmlns="http://www.w3.org/2000/svg"
 width="260.000000pt" height="260.000000pt" viewBox="0 0 260.000000 260.000000"
 preserveAspectRatio="xMidYMid meet">
<metadata>
Created by potrace 1.11, written by Peter Selinger 2001-2013
</metadata>
<g transform="translate(0.000000,260.000000) scale(0.100000,-0.100000)"
fill="#000000" stroke="none">
<path d="M1170 2594 c-310 -39 -574 -165 -786 -378 -189 -190 -305 -407 -361
-676 -24 -117 -24 -363 0 -480 56 -269 173 -488 361 -676 254 -253 556 -378
916 -378 360 0 662 125 916 378 188 188 305 407 361 676 12 60 17 131 17 240
0 109 -5 180 -17 240 -56 269 -173 488 -361 676 -185 184 -394 299 -651 355
-88 19 -318 32 -395 23z m190 -349 c-16 -19 -6 -20 14 0 8 9 17 11 21 6 3 -6
-8 -17 -24 -26 -35 -17 -45 -19 -36 -5 7 12 -7 13 -21 3 -5 -5 0 0 11 9 11 10
25 22 30 27 15 14 19 3 5 -14z m37 -79 c30 -28 26 -52 -12 -66 -26 -10 -34
-29 -12 -31 31 -1 -33 -18 -75 -18 -56 -1 -86 8 -67 20 10 6 10 11 1 21 -6 8
-14 33 -18 56 l-7 42 82 0 c73 0 85 -3 108 -24z m-235 -74 c-3 -27 5 -42 47
-87 45 -50 91 -140 91 -180 0 -8 5 -15 10 -15 6 0 10 7 10 15 0 40 47 132 92
182 43 47 49 60 44 85 -4 20 -1 30 9 34 18 7 223 -135 289 -201 l50 -50 45 48
c97 105 199 121 270 44 31 -34 39 -103 17 -145 -35 -67 -124 -83 -175 -31 -42
41 -42 89 -2 130 38 38 82 39 110 3 25 -32 26 -42 4 -66 -32 -36 -83 -17 -83
31 -1 25 -1 25 -15 7 -21 -28 -18 -53 10 -81 63 -64 161 19 125 106 -24 58
-100 75 -170 39 -38 -20 -110 -97 -110 -119 0 -22 126 -136 181 -164 112 -56
230 -57 285 -2 45 45 44 116 -2 137 -33 15 -59 0 -59 -33 0 -21 4 -24 38 -22
30 2 37 -1 37 -16 0 -39 -70 -42 -99 -5 -25 32 -26 55 -5 95 15 29 65 59 100
59 30 0 80 -30 97 -59 49 -84 -16 -200 -129 -231 -60 -17 -184 -7 -255 19 -60
23 -153 83 -207 135 l-34 31 -40 -45 c-22 -25 -58 -71 -80 -103 -45 -66 -78
-87 -103 -67 -9 8 -15 21 -12 29 3 14 -6 17 -52 18 -60 1 -138 19 -158 35 -18
15 -16 45 4 56 14 9 14 11 -5 21 -17 9 -27 9 -44 0 -19 -10 -19 -12 -5 -21 20
-11 22 -41 5 -56 -21 -16 -95 -33 -157 -35 -48 -1 -57 -4 -54 -17 6 -22 -22
-43 -47 -35 -11 3 -51 48 -88 98 -95 128 -94 127 -140 85 -108 -98 -217 -148
-338 -155 -159 -11 -264 62 -264 180 0 111 153 157 210 64 26 -41 25 -68 -1
-101 -17 -22 -28 -27 -58 -24 -28 2 -37 8 -39 25 -3 20 1 22 35 20 34 -2 38 0
38 22 0 33 -26 48 -59 33 -46 -21 -47 -92 -2 -137 83 -83 271 -39 403 93 35
35 63 68 63 74 0 23 -72 97 -113 117 -54 26 -93 27 -134 1 -60 -36 -55 -124 9
-159 34 -19 77 -6 96 29 11 21 12 30 1 55 l-13 30 -4 -25 c-8 -50 -48 -66 -84
-33 -23 21 -23 34 3 67 28 36 72 35 110 -3 82 -82 -25 -201 -131 -146 -88 45
-77 185 17 227 71 31 150 3 224 -80 l44 -49 40 43 c50 55 275 215 295 211 11
-2 14 -12 12 -35z m-446 -627 c99 -41 126 -198 48 -284 -91 -102 -249 -63
-284 70 -26 95 23 189 115 223 42 16 67 14 121 -9z m1017 -117 c30 -79 57
-151 61 -160 3 -10 13 -18 21 -18 10 0 15 -7 13 -17 -3 -14 -15 -19 -62 -21
-67 -4 -88 8 -63 36 10 11 14 26 10 40 -5 19 -12 22 -59 22 -49 0 -55 -2 -64
-26 -13 -33 -13 -34 5 -34 8 0 15 -9 15 -20 0 -17 -7 -20 -49 -20 -59 0 -70
12 -41 43 13 13 44 84 71 158 27 74 51 140 54 147 14 37 36 4 88 -130z m-1354
107 c51 -26 56 -81 10 -119 -18 -15 -24 -26 -16 -26 8 0 26 -9 41 -21 19 -15
26 -30 26 -55 0 -80 -43 -104 -185 -104 -88 0 -95 1 -95 20 0 11 6 20 14 20
20 0 26 33 26 153 0 100 -1 107 -20 107 -13 0 -20 7 -20 20 0 19 7 20 95 20
65 0 105 -5 124 -15z m627 -82 c114 -145 104 -141 104 -36 0 82 -2 91 -20 96
-11 3 -20 12 -20 21 0 13 12 16 60 16 64 0 78 -14 40 -38 -19 -11 -20 -23 -20
-157 0 -144 0 -145 -23 -145 -16 0 -41 24 -92 91 -39 50 -78 100 -87 112 -17
21 -18 19 -18 -70 0 -76 3 -93 15 -93 8 0 15 -9 15 -20 0 -18 -7 -20 -55 -20
-41 0 -55 4 -55 15 0 7 8 18 18 24 15 8 17 26 17 135 0 113 -2 126 -17 126
-11 0 -18 8 -18 20 0 17 7 20 40 20 38 0 42 -3 116 -97z m464 52 c0 -53 -17
-59 -42 -15 -13 22 -24 30 -46 30 -39 0 -52 -17 -52 -67 0 -41 1 -43 30 -43
23 0 30 4 30 20 0 11 7 20 15 20 12 0 15 -13 15 -60 0 -44 -4 -60 -14 -60 -7
0 -16 9 -19 20 -3 14 -14 20 -31 20 -25 0 -26 -2 -26 -60 l0 -60 42 0 c45 0
78 22 78 52 0 12 7 18 21 18 17 0 20 -4 15 -22 -3 -13 -6 -38 -6 -55 l0 -33
-124 0 c-131 0 -160 10 -118 38 21 14 22 22 22 137 0 114 -1 123 -20 128 -13
3 -18 10 -14 21 5 13 26 16 125 16 l119 0 0 -45z m605 33 c28 -13 55 -55 55
-85 0 -27 -36 -80 -59 -88 -19 -6 -18 -9 16 -56 20 -28 42 -53 50 -56 7 -3 13
-14 13 -25 0 -16 -6 -19 -42 -16 -41 3 -45 7 -83 65 -48 75 -65 80 -65 18 0
-39 3 -45 21 -45 14 0 19 -5 17 -17 -3 -15 -16 -19 -76 -21 -67 -3 -72 -1 -72
18 0 11 7 20 15 20 13 0 15 21 15 130 0 109 -2 130 -15 130 -8 0 -15 9 -15 20
0 19 7 20 100 20 55 0 111 -5 125 -12z m353 -35 c3 -38 1 -43 -17 -43 -14 0
-21 6 -21 20 0 24 -32 42 -68 38 -25 -3 -27 -7 -30 -55 -3 -51 -2 -53 22 -53
19 0 26 5 26 20 0 13 7 20 20 20 18 0 20 -7 20 -60 0 -46 -3 -60 -15 -60 -8 0
-19 9 -25 20 -6 11 -20 20 -30 20 -18 0 -20 -7 -20 -60 l0 -60 36 0 c46 0 70
14 78 45 4 14 13 25 21 25 11 0 15 -13 15 -55 l0 -55 -130 0 c-123 0 -130 1
-130 20 0 11 6 20 14 20 20 0 26 33 26 153 0 100 -1 107 -20 107 -13 0 -20 7
-20 20 0 20 5 20 123 18 l122 -3 3 -42z m-1560 -395 c29 -29 1 -98 -40 -98
-43 0 2 -60 72 -95 19 -10 56 -33 82 -51 68 -50 135 -77 171 -70 38 8 77 43
77 69 0 49 -69 77 -90 38 -14 -28 -3 -49 28 -53 36 -4 36 -32 0 -36 -40 -5
-82 39 -74 76 14 57 86 91 127 59 47 -36 53 -111 12 -149 -16 -14 -37 -29 -48
-33 -16 -6 -11 -10 30 -21 60 -16 126 -17 179 -1 l40 12 -30 19 c-43 28 -53
46 -54 92 0 81 77 122 135 72 53 -46 22 -134 -44 -126 -35 4 -34 32 1 36 31 4
42 25 28 53 -21 38 -90 11 -90 -36 0 -28 38 -63 76 -71 39 -8 83 11 197 85
131 85 177 131 130 131 -42 0 -71 68 -41 98 27 27 84 -1 100 -50 3 -8 50 -4
153 11 200 28 297 28 349 -2 60 -34 81 -69 81 -134 0 -50 -3 -57 -37 -89 -51
-46 -111 -48 -157 -5 -64 59 -29 175 52 175 46 0 77 -27 77 -69 0 -37 -15 -55
-47 -55 -30 0 -69 38 -54 53 7 7 16 6 29 -6 17 -16 20 -16 32 -2 10 12 10 18
0 30 -32 39 -97 -5 -86 -58 9 -43 29 -61 71 -61 51 0 85 36 85 90 0 88 -82
133 -212 119 -80 -9 -331 -45 -334 -48 -1 -1 -4 -11 -8 -23 -6 -21 -5 -21 44
-11 78 15 152 -5 200 -53 79 -79 56 -191 -43 -207 -31 -5 -40 -1 -67 25 -16
17 -30 40 -30 51 0 47 72 80 100 46 17 -20 3 -36 -26 -29 -28 7 -43 -18 -24
-41 16 -19 50 -19 78 1 32 22 30 83 -3 123 -34 40 -84 55 -160 48 -59 -6 -149
-34 -113 -36 9 -1 30 -13 47 -27 57 -48 35 -134 -35 -134 -24 0 -37 6 -45 21
-16 32 4 48 31 24 16 -14 22 -15 35 -5 34 28 -1 82 -62 95 -26 5 -39 0 -79
-30 -53 -41 -145 -90 -215 -114 -35 -13 -59 -32 -98 -79 -28 -34 -57 -62 -64
-62 -14 0 -107 91 -107 105 0 6 -37 26 -82 43 -44 18 -118 57 -164 87 -68 46
-87 54 -112 49 -59 -12 -91 -65 -57 -94 13 -10 19 -10 35 5 31 28 55 1 24 -29
-38 -39 -107 -4 -107 54 0 33 16 56 57 81 l30 18 -27 10 c-47 18 -152 24 -190
12 -73 -25 -113 -116 -70 -163 32 -35 105 -13 89 28 -4 11 -13 14 -30 10 -29
-7 -43 9 -26 29 28 34 100 1 100 -46 0 -11 -13 -34 -29 -50 -39 -39 -82 -39
-121 0 -110 109 33 269 210 234 49 -10 50 -10 44 11 -4 12 -7 22 -8 23 -3 3
-254 39 -334 48 -146 16 -237 -50 -210 -153 18 -68 119 -77 147 -15 25 55 -37
120 -76 80 -14 -14 -14 -18 -3 -32 13 -16 15 -16 26 0 8 10 20 15 29 11 23 -8
2 -44 -30 -52 -34 -8 -53 1 -67 30 -9 20 -8 30 6 51 51 78 156 33 156 -67 -1
-109 -166 -135 -214 -34 -35 74 -8 149 69 193 52 30 161 30 339 3 150 -23 166
-24 166 -8 0 20 42 58 65 58 11 0 26 -5 33 -12z m547 -629 c10 -16 -3 -23 -18
-11 -16 14 -27 6 -27 -20 0 -10 7 -18 15 -18 8 0 15 -4 15 -10 0 -5 -7 -10
-16 -10 -13 0 -15 -9 -12 -50 2 -39 0 -50 -12 -50 -12 0 -14 10 -11 46 2 31
-1 50 -10 56 -11 7 -11 11 -1 15 6 2 12 12 12 22 0 34 49 57 65 30z m85 3 c0
-11 -22 -32 -32 -32 -5 0 -4 9 2 20 11 20 30 28 30 12z m-326 -58 c9 -3 16
-12 16 -20 0 -19 -16 -18 -24 1 -9 23 -35 18 -48 -10 -8 -19 -8 -31 1 -51 10
-23 16 -26 44 -20 30 5 31 5 13 -9 -28 -21 -43 -19 -71 10 -30 29 -31 45 -4
79 20 26 42 32 73 20z m124 -51 c2 -32 8 -53 15 -54 7 -1 -6 -5 -28 -9 -50
-11 -75 -4 -75 19 0 22 17 37 45 43 25 4 27 41 3 46 -11 2 -18 -3 -18 -12 0
-9 -4 -16 -10 -16 -12 0 -13 23 -3 34 4 4 21 6 38 4 29 -3 30 -5 33 -55z m210
45 c22 -22 13 -38 -28 -44 -40 -7 -47 -17 -31 -43 6 -10 19 -12 42 -8 32 6 33
6 15 -8 -34 -26 -64 -18 -85 22 -16 31 -14 50 9 73 22 22 60 26 78 8z"/>
<path d="M1240 2153 c0 -16 5 -35 10 -43 7 -11 10 -4 10 28 0 23 -4 42 -10 42
-5 0 -10 -12 -10 -27z"/>
<path d="M1380 2134 c0 -8 5 -12 10 -9 6 4 8 11 5 16 -9 14 -15 11 -15 -7z"/>
<path d="M1084 2056 l-29 -25 24 -1 c13 0 44 -11 68 -25 75 -45 104 -142 67
-222 -50 -104 -206 -125 -244 -33 -20 48 9 81 89 100 66 16 92 38 84 70 -8 31
-52 43 -108 29 -37 -9 -64 -27 -114 -74 l-65 -62 52 -52 c60 -60 103 -81 167
-81 98 0 168 73 168 175 0 58 -18 98 -63 140 -18 17 -40 43 -50 58 l-18 28
-28 -25z"/>
<path d="M1500 2071 c0 -6 -24 -38 -54 -70 -81 -88 -94 -166 -42 -244 34 -51
82 -77 138 -77 64 0 111 23 172 83 l49 49 -49 50 c-74 75 -153 109 -206 89
-61 -23 -39 -84 35 -96 89 -15 128 -54 106 -106 -26 -65 -125 -77 -195 -24
-114 87 -70 273 71 303 l39 8 -32 23 c-18 12 -32 18 -32 12z"/>
<path d="M984 1981 c-39 -18 -144 -114 -144 -133 0 -5 14 7 32 27 45 52 109
93 170 109 48 13 50 15 18 15 -19 0 -53 -8 -76 -18z"/>
<path d="M1578 1984 c63 -16 128 -59 171 -111 17 -21 31 -33 31 -27 0 18 -115
123 -152 139 -21 8 -52 15 -70 14 -29 0 -26 -2 20 -15z"/>
<path d="M1169 1933 c16 -32 14 -49 -11 -77 -16 -18 -40 -29 -78 -36 -31 -6
-64 -19 -75 -31 l-20 -20 29 -26 c24 -20 36 -24 64 -19 77 12 126 73 119 149
-3 29 -11 55 -22 65 -16 16 -17 16 -6 -5z"/>
<path d="M1439 1933 c-9 -9 -14 -40 -14 -75 0 -56 2 -62 37 -93 45 -42 98 -54
133 -31 27 18 33 47 12 65 -8 6 -38 15 -68 21 -78 14 -115 61 -89 111 13 23 7
25 -11 2z"/>
<path d="M280 1847 c-52 -26 -64 -101 -25 -153 13 -17 13 -16 5 16 -13 47 3
93 43 125 34 26 20 34 -23 12z"/>
<path d="M2318 1834 c37 -33 52 -76 41 -118 -5 -17 -6 -32 -4 -35 8 -7 35 66
35 93 0 33 -37 74 -75 82 l-30 6 33 -28z"/>
<path d="M593 1425 c-44 -31 -55 -132 -23 -202 33 -73 102 -83 140 -20 29 48
28 152 -3 198 -26 40 -77 50 -114 24z"/>
<path d="M1628 1320 l-16 -50 38 0 38 0 -16 50 c-9 28 -19 50 -22 50 -3 0 -13
-22 -22 -50z"/>
<path d="M277 1433 c-4 -3 -7 -31 -7 -60 0 -52 1 -54 23 -47 36 11 47 25 47
60 0 39 -41 70 -63 47z"/>
<path d="M270 1230 l0 -60 34 0 c40 0 59 20 59 62 0 36 -24 58 -65 58 -28 0
-28 -1 -28 -60z"/>
<path d="M1967 1433 c-4 -3 -7 -35 -7 -70 0 -59 1 -63 23 -63 41 0 67 27 67
70 0 29 -6 43 -22 54 -24 17 -50 21 -61 9z"/>
<path d="M810 990 c-14 -27 -8 -34 20 -25 12 4 20 13 18 23 -5 24 -25 25 -38
2z"/>
<path d="M1763 994 c-7 -20 11 -38 32 -30 13 4 14 10 5 26 -13 24 -28 26 -37
4z"/>
<path d="M1260 602 c0 -10 33 -42 43 -42 8 0 47 38 47 45 0 3 -20 5 -45 5 -25
0 -45 -4 -45 -8z"/>
<path d="M1240 265 c-10 -12 -9 -16 3 -21 20 -7 37 3 37 22 0 18 -24 18 -40
-1z"/>
<path d="M1450 325 c-11 -13 -8 -15 18 -15 24 0 30 4 26 15 -4 8 -12 15 -19
15 -7 0 -18 -7 -25 -15z"/>
</g>
</svg>
